<svg width="235" height="48" viewBox="0 0 235 48" fill="none" xmlns="http://www.w3.org/2000/svg">
<path d="M144.4 28.27C145.27 24.74 146.16 21.21 147.03 17.68C148.283 12.56 149.523 7.43331 150.75 2.29998C150.97 1.39998 151.34 0.98998 152.35 1.01998C154.97 1.09998 157.6 1.07998 160.23 1.01998C160.406 0.983727 160.588 0.98601 160.764 1.02667C160.939 1.06733 161.104 1.14541 161.246 1.25557C161.389 1.36572 161.506 1.50535 161.589 1.6649C161.672 1.82445 161.72 2.00015 161.73 2.17998C163.55 10.06 165.42 17.92 167.28 25.79C167.463 26.681 167.752 27.547 168.14 28.37C170 19.31 171.78 10.25 173.62 1.12998H183.62C183.28 2.50998 182.98 3.82998 182.62 5.12998C179.76 16.05 176.87 26.97 174.05 37.9C173.77 38.98 173.39 39.44 172.19 39.41C168.93 39.32 165.66 39.41 162.26 39.41C160.26 31.13 158.26 22.8933 156.26 14.7H156L152.35 29.15C151.57 32.25 150.81 35.37 149.97 38.46C149.885 38.6765 149.75 38.8699 149.576 39.0245C149.402 39.1791 149.195 39.2906 148.97 39.35C145.75 39.4166 142.53 39.4166 139.31 39.35C139.073 39.3112 138.849 39.2154 138.657 39.0708C138.466 38.9262 138.312 38.7372 138.21 38.52C135.07 26.34 131.963 14.1666 128.89 1.99998C128.83 1.76998 128.81 1.51998 128.76 1.17998H138.76C140.546 10.1933 142.343 19.2133 144.15 28.24L144.4 28.27Z" fill="#0E0E0E"/>
<path d="M55.3996 17.47V39.2599H46.0596V1.04995C49.5896 1.04995 53.0596 1.04995 56.4996 1.10995C56.8596 1.10995 57.3396 1.81995 57.4996 2.28995C60.7329 10.13 63.9396 17.9833 67.1196 25.85C67.2996 26.29 67.5196 26.71 67.8596 27.45C68.9496 24.81 69.9296 22.45 70.8596 20.1C73.2996 14.19 75.6896 8.29995 77.9996 2.36995C78.0825 1.93876 78.3281 1.55599 78.6856 1.30094C79.043 1.0459 79.4848 0.938125 79.9196 0.999952C83.0896 1.07995 86.2596 0.999952 89.5396 0.999952V39.2599H80.2796V17.4L79.9396 17.33C79.5796 18.25 79.1996 19.17 78.8496 20.1C76.5896 26.1 74.3296 32.0999 72.1196 38.0999C72.0485 38.508 71.82 38.8718 71.4834 39.1131C71.1467 39.3543 70.7288 39.4538 70.3196 39.3899C68.634 39.3049 66.9452 39.3049 65.2596 39.3899C64.8773 39.452 64.4859 39.3639 64.1672 39.1439C63.8485 38.924 63.6272 38.5893 63.5496 38.2099C61.1096 31.5999 58.5996 25.01 56.1196 18.41C55.9896 18.06 55.8296 17.73 55.6896 17.41L55.3996 17.47" fill="#0E0E0E"/>
<path d="M197.9 25.07V39.26H188.56V1.26999C188.67 1.20999 188.75 1.10999 188.83 1.10999C194.72 1.10999 200.63 0.829992 206.51 1.16999C215.27 1.66999 220.35 8.99999 217.77 17C217.284 18.4875 216.476 19.8498 215.405 20.9903C214.333 22.1309 213.024 23.0219 211.57 23.6L209.9 24.31L218.69 39.39C215.1 39.39 211.84 39.39 208.59 39.39C208.22 39.39 207.76 38.78 207.52 38.39C205.27 34.39 203 30.39 200.88 26.32C200.16 24.95 199.27 24.81 197.88 25.17L197.9 25.07ZM197.94 18.35C200.23 18.35 202.35 18.41 204.48 18.35C205.053 18.3593 205.622 18.2544 206.153 18.0413C206.685 17.8282 207.169 17.5113 207.577 17.1091C207.984 16.7069 208.308 16.2275 208.528 15.6988C208.749 15.1701 208.861 14.6028 208.86 14.03C209.04 11.38 207.66 9.31999 205.08 9.02999C202.724 8.85667 200.361 8.80661 198 8.87999L197.94 18.35Z" fill="#0E0E0E"/>
<path d="M96.4902 1.11994C102.49 1.11994 108.24 0.87994 114.01 1.17994C120.13 1.49994 124.15 4.99994 125.45 10.4399C125.886 12.1237 125.949 13.8823 125.634 15.5928C125.319 17.3033 124.634 18.9243 123.627 20.3425C122.62 21.7607 121.316 22.9419 119.805 23.8033C118.294 24.6648 116.613 25.1858 114.88 25.3299C111.94 25.5899 108.96 25.3299 105.88 25.3299V39.2499H96.4902V1.11994ZM105.83 18.3999C108.299 18.3273 110.762 18.1303 113.21 17.8099C115.21 17.4399 116.21 15.7499 116.21 13.4299C116.21 11.1099 115.31 9.32994 113.35 8.97994C110.869 8.64652 108.372 8.44623 105.87 8.37994L105.83 18.3999Z" fill="#0E0E0E"/>
<path d="M228.64 29.6899C231.85 29.6899 234.17 31.8699 234.16 34.8299C234.15 37.7899 231.74 39.8899 228.54 39.8299C225.34 39.7699 223 37.6299 223 34.7299C223 31.8299 225.41 29.6699 228.62 29.7299" fill="#0E0E0E"/>
<path d="M7.25 1.02991H42.06L35.06 9.72991H35.46H19.48H0L7.25 1.02991Z" fill="#0E0E0E"/>
<path d="M7.26 15.84H42.06L35.06 24.55H0L7.26 15.84Z" fill="#0E0E0E"/>
<path d="M7.26 30.4099H42.06L35.06 39.1199H0L7.26 30.4099Z" fill="#0E0E0E"/>
<path d="M14.3301 47.14L26.5701 36.58H14.3801L14.3301 47.14Z" fill="#0E0E0E"/>
</svg>
